HIERARCHY
ROOT Hips
{
  OFFSET 5.80788e-005 67.184 3.4734
  CHANNELS 6 Xposition Yposition Zposition Zrotation Xrotation Yrotation
  JOINT Chest
  {
    OFFSET 0 8.7983 -4.7612
    CHANNELS 6 Xposition Yposition Zposition Zrotation Xrotation Yrotation
    JOINT Chest2
    {
      OFFSET 0 8.0291 0.4195
      CHANNELS 6 Xposition Yposition Zposition Zrotation Xrotation Yrotation
      JOINT Chest3
      {
        OFFSET 0 9.9351 -2.2114
        CHANNELS 6 Xposition Yposition Zposition Zrotation Xrotation Yrotation
        JOINT Neck
        {
          OFFSET 0 22.3885 -0.4656
          CHANNELS 6 Xposition Yposition Zposition Zrotation Xrotation Yrotation
          JOINT Head
          {
            OFFSET -0.0001 12.643 3.4389
            CHANNELS 6 Xposition Yposition Zposition Zrotation Xrotation Yrotation
            End Site
            {
              OFFSET 0.0001 17.6655 0.5274
            }
          }
        }
        JOINT LeftCollar
        {
          OFFSET 2.2603 21.606 7.4023
          CHANNELS 6 Xposition Yposition Zposition Zrotation Xrotation Yrotation
          JOINT LeftShoulder
          {
            OFFSET 13.5163 -1.1332 -5.0146
            CHANNELS 6 Xposition Yposition Zposition Zrotation Xrotation Yrotation
            JOINT LeftElbow
            {
              OFFSET -0.0995 -28.05 -0.2431
              CHANNELS 6 Xposition Yposition Zposition Zrotation Xrotation Yrotation
              JOINT LeftWrist
              {
                OFFSET 0.0679 -23.3996 -0.1402
                CHANNELS 6 Xposition Yposition Zposition Zrotation Xrotation Yrotation
                JOINT LeftFinger1
                {
                  OFFSET 0.7932 -9.069 2.5189
                  CHANNELS 6 Xposition Yposition Zposition Zrotation Xrotation Yrotation
                  JOINT LeftFinger11
                  {
                    OFFSET -0.8272 -3.3923 0.5977
                    CHANNELS 6 Xposition Yposition Zposition Zrotation Xrotation Yrotation
                    JOINT LeftFinger12
                    {
                      OFFSET -0.5649 -2.3158 0.4082
                      CHANNELS 6 Xposition Yposition Zposition Zrotation Xrotation Yrotation
                      End Site
                      {
                        OFFSET -0.4919 -1.6479 0.2673
                      }
                    }
                  }
                }
                JOINT LeftFinger2
                {
                  OFFSET 0.9159 -9.2044 0.2193
                  CHANNELS 6 Xposition Yposition Zposition Zrotation Xrotation Yrotation
                  JOINT LeftFinger21
                  {
                    OFFSET 0.0117 -4.1944 -0.0248
                    CHANNELS 6 Xposition Yposition Zposition Zrotation Xrotation Yrotation
                    JOINT LeftFinger22
                    {
                      OFFSET 0.0071 -2.3249 -0.0142
                      CHANNELS 6 Xposition Yposition Zposition Zrotation Xrotation Yrotation
                      End Site
                      {
                        OFFSET -0.1475 -2.0882 0.0028
                      }
                    }
                  }
                }
                JOINT LeftFinger3
                {
                  OFFSET 0.6113 -8.7231 -2.0637
                  CHANNELS 6 Xposition Yposition Zposition Zrotation Xrotation Yrotation
                  JOINT LeftFinger31
                  {
                    OFFSET -0.1927 -3.8059 -0.2383
                    CHANNELS 6 Xposition Yposition Zposition Zrotation Xrotation Yrotation
                    JOINT LeftFinger32
                    {
                      OFFSET -0.1091 -2.1688 -0.1362
                      CHANNELS 6 Xposition Yposition Zposition Zrotation Xrotation Yrotation
                      End Site
                      {
                        OFFSET -0.2358 -1.9176 -0.0906
                      }
                    }
                  }
                }
                JOINT LeftFinger4
                {
                  OFFSET -0.6151 -8.0947 -3.5641
                  CHANNELS 6 Xposition Yposition Zposition Zrotation Xrotation Yrotation
                  JOINT LeftFinger41
                  {
                    OFFSET -0.4882 -2.341 -0.6462
                    CHANNELS 6 Xposition Yposition Zposition Zrotation Xrotation Yrotation
                    JOINT LeftFinger42
                    {
                      OFFSET -0.3575 -1.7167 -0.4742
                      CHANNELS 6 Xposition Yposition Zposition Zrotation Xrotation Yrotation
                      End Site
                      {
                        OFFSET -0.4187 -1.5237 -0.3496
                      }
                    }
                  }
                }
                JOINT LeftFinger0
                {
                  OFFSET -1.42 -1.8761 1.4223
                  CHANNELS 6 Xposition Yposition Zposition Zrotation Xrotation Yrotation
                  JOINT LeftFinger01
                  {
                    OFFSET -1.1471 -3.4929 2.6334
                    CHANNELS 6 Xposition Yposition Zposition Zrotation Xrotation Yrotation
                    JOINT LeftFinger02
                    {
                      OFFSET -0.823 -2.3 1.6571
                      CHANNELS 6 Xposition Yposition Zposition Zrotation Xrotation Yrotation
                      End Site
                      {
                        OFFSET -0.5822 -1.6914 1.1582
                      }
                    }
                  }
                }
              }
            }
          }
        }
        JOINT RightCollar
        {
          OFFSET -2.2603 21.606 7.4023
          CHANNELS 6 Xposition Yposition Zposition Zrotation Xrotation Yrotation
          JOINT RightShoulder
          {
            OFFSET -13.5187 -1.1334 -5.0155
            CHANNELS 6 Xposition Yposition Zposition Zrotation Xrotation Yrotation
            JOINT RightElbow
            {
              OFFSET 0.0994 -28.0499 -0.2431
              CHANNELS 6 Xposition Yposition Zposition Zrotation Xrotation Yrotation
              JOINT RightWrist
              {
                OFFSET -0.0679 -23.3996 -0.1402
                CHANNELS 6 Xposition Yposition Zposition Zrotation Xrotation Yrotation
                JOINT RightFinger1
                {
                  OFFSET -0.7932 -9.0691 2.5189
                  CHANNELS 6 Xposition Yposition Zposition Zrotation Xrotation Yrotation
                  JOINT RightFinger11
                  {
                    OFFSET 0.8272 -3.3923 0.5977
                    CHANNELS 6 Xposition Yposition Zposition Zrotation Xrotation Yrotation
                    JOINT RightFinger12
                    {
                      OFFSET 0.565 -2.3158 0.4082
                      CHANNELS 6 Xposition Yposition Zposition Zrotation Xrotation Yrotation
                      End Site
                      {
                        OFFSET 0.4919 -1.6479 0.2673
                      }
                    }
                  }
                }
                JOINT RightFinger2
                {
                  OFFSET -0.916 -9.2044 0.2193
                  CHANNELS 6 Xposition Yposition Zposition Zrotation Xrotation Yrotation
                  JOINT RightFinger21
                  {
                    OFFSET -0.0117 -4.1944 -0.0248
                    CHANNELS 6 Xposition Yposition Zposition Zrotation Xrotation Yrotation
                    JOINT RightFinger22
                    {
                      OFFSET -0.0071 -2.3249 -0.0142
                      CHANNELS 6 Xposition Yposition Zposition Zrotation Xrotation Yrotation
                      End Site
                      {
                        OFFSET 0.1475 -2.0882 0.0028
                      }
                    }
                  }
                }
                JOINT RightFinger3
                {
                  OFFSET -0.6113 -8.7231 -2.0637
                  CHANNELS 6 Xposition Yposition Zposition Zrotation Xrotation Yrotation
                  JOINT RightFinger31
                  {
                    OFFSET 0.1927 -3.8059 -0.2383
                    CHANNELS 6 Xposition Yposition Zposition Zrotation Xrotation Yrotation
                    JOINT RightFinger32
                    {
                      OFFSET 0.1091 -2.1688 -0.1362
                      CHANNELS 6 Xposition Yposition Zposition Zrotation Xrotation Yrotation
                      End Site
                      {
                        OFFSET 0.2358 -1.9176 -0.0906
                      }
                    }
                  }
                }
                JOINT RightFinger4
                {
                  OFFSET 0.6151 -8.0947 -3.564
                  CHANNELS 6 Xposition Yposition Zposition Zrotation Xrotation Yrotation
                  JOINT RightFinger41
                  {
                    OFFSET 0.4882 -2.341 -0.6462
                    CHANNELS 6 Xposition Yposition Zposition Zrotation Xrotation Yrotation
                    JOINT RightFinger42
                    {
                      OFFSET 0.3574 -1.7166 -0.4742
                      CHANNELS 6 Xposition Yposition Zposition Zrotation Xrotation Yrotation
                      End Site
                      {
                        OFFSET 0.4187 -1.5237 -0.3496
                      }
                    }
                  }
                }
                JOINT RightFinger0
                {
                  OFFSET 1.4199 -1.8761 1.4221
                  CHANNELS 6 Xposition Yposition Zposition Zrotation Xrotation Yrotation
                  JOINT RightFinger01
                  {
                    OFFSET 1.1472 -3.4929 2.6336
                    CHANNELS 6 Xposition Yposition Zposition Zrotation Xrotation Yrotation
                    JOINT RightFinger02
                    {
                      OFFSET 0.8229 -2.3 1.6571
                      CHANNELS 6 Xposition Yposition Zposition Zrotation Xrotation Yrotation
                      End Site
                      {
                        OFFSET 0.5822 -1.6914 1.1582
                      }
                    }
                  }
                }
              }
            }
          }
        }
      }
    }
  }
  JOINT RightHip
  {
    OFFSET -9.412 3.9771 -0.7758
    CHANNELS 6 Xposition Yposition Zposition Zrotation Xrotation Yrotation
    JOINT RightKnee
    {
      OFFSET -0.7531 -40.938 0
      CHANNELS 6 Xposition Yposition Zposition Zrotation Xrotation Yrotation
      JOINT RightAnkle
      {
        OFFSET 0 -40.1986 0
        CHANNELS 6 Xposition Yposition Zposition Zrotation Xrotation Yrotation
        JOINT RightToe
        {
          OFFSET 0 -4.4182 9.239
          CHANNELS 6 Xposition Yposition Zposition Zrotation Xrotation Yrotation
          End Site
          {
            OFFSET 0 0 6.1981
          }
        }
      }
    }
  }
  JOINT LeftHip
  {
    OFFSET 9.4119 3.9773 -0.7758
    CHANNELS 6 Xposition Yposition Zposition Zrotation Xrotation Yrotation
    JOINT LeftKnee
    {
      OFFSET 0.7532 -40.9383 0
      CHANNELS 6 Xposition Yposition Zposition Zrotation Xrotation Yrotation
      JOINT LeftAnkle
      {
        OFFSET 0 -40.1986 0
        CHANNELS 6 Xposition Yposition Zposition Zrotation Xrotation Yrotation
        JOINT LeftToe
        {
          OFFSET 0 -4.4182 9.239
          CHANNELS 6 Xposition Yposition Zposition Zrotation Xrotation Yrotation
          End Site
          {
            OFFSET 0 0 6.1981
          }
        }
      }
    }
  }
}
MOTION
Frames:	4
Frame Time:	0.0333333
5.80788e-005 67.184 3.4734 0 0 -0 0 8.7983 -4.7612 0 0 -0 0 8.0291 0.4195 0 0 -0 0 9.9351 -2.2114 0 0 -0 0 22.3885 -0.4656 0 0 -0 -0.0001 12.643 3.4389 0 0 -0 2.2603 21.606 7.4023 0 0 -12.5014 13.5163 -1.1332 -5.0146 88.1196 14.2451 10.6914 -0.0995 -28.05 -0.2431 -0.00160068 -0.00239207 0.000740045 0.0679 -23.3996 -0.1402 -8.4365e-005 7.00714e-005 -9.52055e-007 0.7932 -9.069 2.5189 9.93923e-017 -1.98785e-016 -1.59028e-015 -0.8272 -3.3923 0.5977 9.93923e-017 -5.96354e-016 -1.59028e-015 -0.5649 -2.3158 0.4082 -9.93923e-017 -5.96354e-016 -1.59028e-015 0.9159 -9.2044 0.2193 9.93923e-017 -1.98785e-016 -1.59028e-015 0.0117 -4.1944 -0.0248 -0.0128176 0.00232552 8.52707e-005 0.0071 -2.3249 -0.0142 9.93923e-017 5.96354e-016 -0 0.6113 -8.7231 -2.0637 9.93923e-017 -1.98785e-016 -1.59028e-015 -0.1927 -3.8059 -0.2383 -0.0160551 0.00299681 0.000857156 -0.1091 -2.1688 -0.1362 -2.48481e-016 0 3.18055e-015 -0.6151 -8.0947 -3.5641 9.93923e-017 -1.98785e-016 -1.59028e-015 -0.4882 -2.341 -0.6462 -0.0125865 0.0031206 0.00282719 -0.3575 -1.7167 -0.4742 0 1.98785e-016 -0 -1.42 -1.8761 1.4223 9.93923e-017 -1.98785e-016 -1.59028e-015 -1.1471 -3.4929 2.6334 9.93923e-017 -5.96354e-016 -1.59028e-015 -0.823 -2.3 1.6571 -9.93923e-017 -5.96354e-016 -1.59028e-015 -2.2603 21.606 7.4023 -0.865644 0.16582 7.03859 -13.5187 -1.1334 -5.0155 -88.0329 10.2057 -10.5567 0.0994 -28.0499 -0.2431 0.0015593 -0.00248883 -0.000788628 -0.0679 -23.3996 -0.1402 7.87605e-005 4.10553e-005 1.24965e-005 -0.7932 -9.0691 2.5189 -3.97569e-016 -7.95139e-016 3.18055e-015 0.8272 -3.3923 0.5977 -1.98785e-016 -3.97569e-016 3.18055e-015 0.565 -2.3158 0.4082 -1.98785e-016 0 3.18055e-015 -0.916 -9.2044 0.2193 -3.97569e-016 -7.95139e-016 3.18055e-015 -0.0117 -4.1944 -0.0248 0.0129473 0.00231697 -8.70038e-005 -0.0071 -2.3249 -0.0142 9.93923e-017 -7.95139e-016 1.59028e-015 -0.6113 -8.7231 -2.0637 -3.97569e-016 -7.95139e-016 3.18055e-015 0.1927 -3.8059 -0.2383 0.0163314 0.00303369 -0.000872333 0.1091 -2.1688 -0.1362 3.97569e-016 7.95139e-016 -3.18055e-015 0.6151 -8.0947 -3.564 -3.97569e-016 -7.95139e-016 3.18055e-015 0.4882 -2.341 -0.6462 0.0145763 0.00367772 -0.00326275 0.3574 -1.7166 -0.4742 9.93923e-017 -3.97569e-016 -0 1.4199 -1.8761 1.4221 -3.97569e-016 -7.95139e-016 3.18055e-015 1.1472 -3.4929 2.6336 -1.98785e-016 -3.97569e-016 3.18055e-015 0.8229 -2.3 1.6571 -1.98785e-016 0 3.18055e-015 -9.412 3.9771 -0.7758 3.42485 1.36937 -0.0640303 -0.7531 -40.938 0 0.000136572 0.69354 0.00145564 1.77636e-015 -40.1986 -1.11022e-016 -3.42573 -2.06297 -0.0607933 8.88178e-016 -4.4182 9.239 -3.19502e-024 0 -1.48106e-024 9.4119 3.9773 -0.7758 -3.42498 1.36123 0.0639712 0.7532 -40.9383 2.22045e-016 -6.769e-005 0.712612 -0.0012277 8.88179e-016 -40.1986 0 3.42582 -2.07388 0.0612819 -8.88178e-016 -4.4182 9.239 2.55305e-023 0 -2.31416e-026 
-17.9987 31.4357 28.024 0.762867 -47.8861 3.08485 -7.10543e-015 8.7983 -4.7612 -0.776272 5.28569 -0.175006 -7.10543e-015 8.0291 0.4195 -1.54619 10.5733 -0.279516 -3.55271e-015 9.9351 -2.2114 -1.5462 10.5733 -0.279516 -3.55271e-015 22.3885 -0.4656 -0.0253027 3.54561 0.0967942 -0.0001 12.643 3.4389 11.0462 2.51029 18.9137 2.2603 21.606 7.4023 7.76061 -0.933653 10.1705 13.5163 -1.1332 -5.0146 64.0987 6.63125 8.91913 -0.0995 -28.05 -0.2431 -31.6873 -1.72445 -13.501 0.0679 -23.3996 -0.1402 5.38341 0.862189 -27.9215 0.7932 -9.069 2.5189 9.09669e-006 -7.24793e-007 -2.42263e-006 -0.8272 -3.3923 0.5977 4.57205e-015 0 -2.38542e-015 -0.5649 -2.3158 0.4082 -4.57205e-015 1.59028e-015 7.95139e-016 0.9159 -9.2044 0.2193 9.09669e-006 -7.24793e-007 -2.42263e-006 0.0117 -4.1944 -0.0248 -0.0128324 0.00232486 8.73989e-005 0.0071 -2.3249 -0.0142 -9.93923e-016 1.59028e-015 -0 0.6113 -8.7231 -2.0637 9.09669e-006 -7.24793e-007 -2.42263e-006 -0.1927 -3.8059 -0.2383 -0.0160942 0.00300291 0.000862551 -0.1091 -2.1688 -0.1362 4.17448e-015 -4.77083e-015 -0 -0.6151 -8.0947 -3.5641 9.09669e-006 -7.24793e-007 -2.42263e-006 -0.4882 -2.341 -0.6462 -0.0126666 0.00313865 0.00284234 -0.3575 -1.7167 -0.4742 6.36111e-015 1.59028e-015 -7.95139e-016 -1.42 -1.8761 1.4223 9.09669e-006 -7.24793e-007 -2.42263e-006 -1.1471 -3.4929 2.6334 4.57205e-015 0 -2.38542e-015 -0.823 -2.3 1.6571 -4.57205e-015 1.59028e-015 7.95139e-016 -2.2603 21.606 7.4023 5.33922 -3.21897 8.67259 -13.5187 -1.1334 -5.0155 -53.39 -0.110129 -22.9912 0.0994 -28.0499 -0.2431 38.4366 -18.5769 33.3486 -0.0679 -23.3996 -0.1402 12.1429 6.17225 0.34039 -0.7932 -9.0691 2.5189 5.18109e-006 -9.95289e-006 2.96815e-006 0.8272 -3.3923 0.5977 -4.77083e-015 1.27222e-014 3.18055e-015 0.565 -2.3158 0.4082 1.72994e-007 1.44408e-006 2.06437e-006 -0.916 -9.2044 0.2193 5.18109e-006 -9.95289e-006 2.96815e-006 -0.0117 -4.1944 -0.0248 0.0129607 0.00232022 -8.77263e-005 -0.0071 -2.3249 -0.0142 1.86537e-006 -5.00932e-006 1.3263e-006 -0.6113 -8.7231 -2.0637 5.18109e-006 -9.95289e-006 2.96815e-006 0.1927 -3.8059 -0.2383 0.0162877 0.00303718 -0.000882107 0.1091 -2.1688 -0.1362 8.63349e-007 -4.27358e-006 7.5392e-006 0.6151 -8.0947 -3.564 5.18109e-006 -9.95289e-006 2.96815e-006 0.4882 -2.341 -0.6462 0.0146242 0.00367966 -0.00326222 0.3574 -1.7166 -0.4742 -3.50035e-006 1.90264e-006 1.02737e-006 1.4199 -1.8761 1.4221 5.18109e-006 -9.95289e-006 2.96815e-006 1.1472 -3.4929 2.6336 -4.77083e-015 1.27222e-014 3.18055e-015 0.8229 -2.3 1.6571 1.72994e-007 1.44408e-006 2.06437e-006 -9.412 3.9771 -0.7758 -7.17657 -2.2409 -8.86315 -0.7531 -40.938 0 -4.7645 0.341554 5.72503 -3.55271e-015 -40.1986 7.10543e-015 -6.16381 -0.730461 -10.4148 3.55271e-015 -4.4182 9.239 -2.84835e-007 1.60326e-005 5.47419e-006 9.4119 3.9773 -0.7758 0.469853 -12.7227 9.62951 0.7532 -40.9383 0 6.87281 34.1142 -10.5676 0 -40.1986 0 3.05222 2.83242 -0.787762 1.77636e-015 -4.4182 9.239 -1.96424e-007 -1.56743e-006 8.33341e-008 
-31.726 5.13756 43.3169 34.6795 -83.9597 37.5473 -7.10543e-015 8.7983 -4.7612 -1.37486 9.35927 -0.433892 -7.10543e-015 8.0291 0.4195 -2.7327 18.7262 -0.649746 -7.10543e-015 9.9351 -2.2114 -2.7327 18.7263 -0.649747 0 22.3885 -0.4656 -0.0532721 6.30301 0.172808 -0.0001 12.643 3.4389 18.5523 3.92803 33.6805 2.2603 21.606 7.4023 14.2671 -1.37202 27.8125 13.5163 -1.1332 -5.0146 46.3247 -0.605893 6.93428 -0.0995 -28.05 -0.2431 -56.0339 -3.88168 -21.9675 0.0679 -23.3996 -0.1402 9.6389 1.14119 -49.618 0.7932 -9.069 2.5189 -1.59028e-015 -6.36111e-015 1.59028e-015 -0.8272 -3.3923 0.5977 1.59028e-015 -3.18055e-015 6.36111e-015 -0.5649 -2.3158 0.4082 4.77083e-015 0 -6.36111e-015 0.9159 -9.2044 0.2193 -1.59028e-015 -6.36111e-015 1.59028e-015 0.0117 -4.1944 -0.0248 -0.012806 0.00232729 9.10655e-005 0.0071 -2.3249 -0.0142 -6.36111e-015 9.54166e-015 3.18055e-015 0.6113 -8.7231 -2.0637 -1.59028e-015 -6.36111e-015 1.59028e-015 -0.1927 -3.8059 -0.2383 -0.0160384 0.00300023 0.000860228 -0.1091 -2.1688 -0.1362 -1.59028e-015 -6.36111e-015 -3.18055e-015 -0.6151 -8.0947 -3.5641 -1.59028e-015 -6.36111e-015 1.59028e-015 -0.4882 -2.341 -0.6462 -0.0125797 0.00311518 0.00282464 -0.3575 -1.7167 -0.4742 -3.18055e-015 3.18055e-015 -1.59028e-015 -1.42 -1.8761 1.4223 -1.59028e-015 -6.36111e-015 1.59028e-015 -1.1471 -3.4929 2.6334 1.59028e-015 -3.18055e-015 6.36111e-015 -0.823 -2.3 1.6571 4.77083e-015 0 -6.36111e-015 -2.2603 21.606 7.4023 10.3009 -5.8465 9.95424 -13.5187 -1.1334 -5.0155 -27.254 -9.51614 -31.6403 0.0994 -28.0499 -0.2431 66.8031 -34.7232 56.063 -0.0679 -23.3996 -0.1402 21.5047 10.991 0.311007 -0.7932 -9.0691 2.5189 -9.74157e-006 -1.55829e-006 -1.11719e-006 0.8272 -3.3923 0.5977 1.50157e-006 -9.5144e-006 5.8863e-007 0.565 -2.3158 0.4082 2.22639e-014 3.18055e-015 -3.18055e-015 -0.916 -9.2044 0.2193 -9.74157e-006 -1.55829e-006 -1.11719e-006 -0.0117 -4.1944 -0.0248 0.0129361 0.00231811 -8.97718e-005 -0.0071 -2.3249 -0.0142 4.62317e-006 -5.28067e-006 1.05668e-005 -0.6113 -8.7231 -2.0637 -9.74157e-006 -1.55829e-006 -1.11719e-006 0.1927 -3.8059 -0.2383 0.0162852 0.00302558 -0.000872587 0.1091 -2.1688 -0.1362 1.8099e-006 -8.26237e-006 3.54111e-006 0.6151 -8.0947 -3.564 -9.74157e-006 -1.55829e-006 -1.11719e-006 0.4882 -2.341 -0.6462 0.0145343 0.00366135 -0.00325002 0.3574 -1.7166 -0.4742 -2.13388e-006 -3.80437e-006 5.72868e-006 1.4199 -1.8761 1.4221 -9.74157e-006 -1.55829e-006 -1.11719e-006 1.1472 -3.4929 2.6336 1.50157e-006 -9.5144e-006 5.8863e-007 0.8229 -2.3 1.6571 2.22639e-014 3.18055e-015 -3.18055e-015 -9.412 3.9771 -0.7758 -16.1294 -4.86441 -15.8405 -0.7531 -40.938 1.77636e-015 -8.51546 0.808359 10.1922 7.10543e-015 -40.1986 -1.77636e-015 -8.18127 -0.360496 -18.4903 0 -4.4182 9.239 1.10348e-032 7.95139e-016 -7.95139e-016 9.4119 3.9773 -0.7758 6.39103 -22.1569 18.0197 0.7532 -40.9383 1.77636e-015 26.592 55.5841 -29.3284 -7.10543e-015 -40.1986 0 2.72357 7.38941 -1.18856 0 -4.4182 9.239 9.36375e-007 -2.34224e-006 -1.71353e-006 
-33.6903 1.33805 45.2023 94.8437 -86.0578 97.709 0 8.7983 -4.7612 -1.45869 9.93808 -0.481337 7.10543e-015 8.0291 0.4195 -2.89819 19.8851 -0.717666 -7.10543e-015 9.9351 -2.2114 -2.8982 19.8852 -0.717667 -7.10543e-015 22.3885 -0.4656 -0.0578721 6.69695 0.183754 -0.0001 12.643 3.4389 19.5602 4.06882 35.7944 2.2603 21.606 7.4023 15.2216 -1.40203 30.3332 13.5163 -1.1332 -5.0146 43.8433 -1.71786 6.59579 -0.0995 -28.05 -0.2431 -59.4721 -4.29425 -23.0544 0.0679 -23.3996 -0.1402 10.2428 1.15277 -52.7156 0.7932 -9.069 2.5189 1.43125e-014 6.36111e-015 -6.36111e-015 -0.8272 -3.3923 0.5977 7.95139e-015 -3.18055e-015 -4.77083e-015 -0.5649 -2.3158 0.4082 7.95139e-015 9.54166e-015 -7.95139e-015 0.9159 -9.2044 0.2193 1.43125e-014 6.36111e-015 -6.36111e-015 0.0117 -4.1944 -0.0248 -0.0128031 0.0023169 7.70264e-005 0.0071 -2.3249 -0.0142 6.36111e-015 -3.18055e-015 4.77083e-015 0.6113 -8.7231 -2.0637 1.43125e-014 6.36111e-015 -6.36111e-015 -0.1927 -3.8059 -0.2383 -0.0160476 0.00298549 0.000859779 -0.1091 -2.1688 -0.1362 -1.41245e-030 -1.27222e-014 -6.36111e-015 -0.6151 -8.0947 -3.5641 1.43125e-014 6.36111e-015 -6.36111e-015 -0.4882 -2.341 -0.6462 -0.0125908 0.0031271 0.00282585 -0.3575 -1.7167 -0.4742 3.64039e-006 1.21367e-006 2.02489e-006 -1.42 -1.8761 1.4223 1.43125e-014 6.36111e-015 -6.36111e-015 -1.1471 -3.4929 2.6334 7.95139e-015 -3.18055e-015 -4.77083e-015 -0.823 -2.3 1.6571 7.95139e-015 9.54166e-015 -7.95139e-015 -2.2603 21.606 7.4023 11.0195 -6.22119 10.1386 -13.5187 -1.1334 -5.0155 -23.5282 -10.7108 -32.7799 0.0994 -28.0499 -0.2431 70.4651 -37.4323 58.9547 -0.0679 -23.3996 -0.1402 22.5338 11.6106 0.295028 -0.7932 -9.0691 2.5189 -6.36111e-015 3.18055e-015 -3.18055e-015 0.8272 -3.3923 0.5977 -3.14183e-006 -9.03057e-007 -1.10494e-006 0.565 -2.3158 0.4082 -1.27222e-014 -1.90833e-014 -9.54166e-015 -0.916 -9.2044 0.2193 -6.36111e-015 3.18055e-015 -3.18055e-015 -0.0117 -4.1944 -0.0248 0.0129646 0.00232019 -8.44897e-005 -0.0071 -2.3249 -0.0142 -0 -6.36111e-015 -0 -0.6113 -8.7231 -2.0637 -6.36111e-015 3.18055e-015 -3.18055e-015 0.1927 -3.8059 -0.2383 0.016346 0.00304769 -0.000871599 0.1091 -2.1688 -0.1362 -3.18055e-015 0 -0 0.6151 -8.0947 -3.564 -6.36111e-015 3.18055e-015 -3.18055e-015 0.4882 -2.341 -0.6462 0.0145829 0.00367334 -0.00326813 0.3574 -1.7166 -0.4742 3.53113e-031 -6.36111e-015 3.18055e-015 1.4199 -1.8761 1.4221 -6.36111e-015 3.18055e-015 -3.18055e-015 1.1472 -3.4929 2.6336 -3.14183e-006 -9.03057e-007 -1.10494e-006 0.8229 -2.3 1.6571 -1.27222e-014 -1.90833e-014 -9.54166e-015 -9.412 3.9771 -0.7758 -17.4717 -5.50624 -16.9743 -0.7531 -40.938 -8.88178e-016 -9.05416 1.60188 10.9075 0 -40.1986 -8.88178e-016 -8.44296 -0.293662 -19.6455 0 -4.4182 9.239 -3.18055e-015 4.40853e-007 3.18055e-015 9.4119 3.9773 -0.7758 7.4714 -23.4018 19.3333 0.7532 -40.9383 0 31.49 58.0743 -33.8748 0 -40.1986 0 2.67581 8.02976 -1.22378 0 -4.4182 9.239 7.09481e-007 -8.08708e-008 4.16249e-007 
